# xmcd
#
# Track frame offsets:
#	150
#	18554
#	37987
#	51299
#	69309
#	89022
#	106782
#	128270
#	145062
#	168679
#	200884
#	223222
#
# Disc length: 3338 seconds
#
# Revision: 0
# Processed by: cddbd v1.5.2PL0 Copyright (c) Steve Scherf et al.
# Submitted via: EasyCDDAExtractor 10.0.2.1
#
DISCID=ae0d080c
DTITLE=The Charlie Daniels Band - Hits Of The South
DYEAR=2013
DGENRE=Country
TTITLE0=Signed, Sealed And Delivered, I'm Yours (with Bonnie Bartlett
TTITLE1=Long Haired Country Boy (with Brooks and Dunn)
TTITLE2=Southern Boy (with Travis Tritt)
TTITLE3=The Night They Drove Old Dixie Down (with Vince Gill)
TTITLE4=Statesboro Blues
TTITLE5=The South's Gonna Do It (Again)
TTITLE6=Sharp Dressed Man
TTITLE7=The Devil Went Down To Georgia
TTITLE8=In Memory Of Elizabeth Reed
TTITLE9=Freebird
TTITLE10=Birmingham Blues
TTITLE11=Can't See You
EXTD=
EXTT0=
EXTT1=
EXTT2=
EXTT3=
EXTT4=
EXTT5=
EXTT6=
EXTT7=
EXTT8=
EXTT9=
EXTT10=
EXTT11=
PLAYORDER=
